<?xml version="1.0" encoding="UTF-8"?>
<svg id="Layer_1" xmlns="http://www.w3.org/2000/svg" version="1.1" viewBox="0 0 393.85 103.58">
  <!-- Generator: Adobe Illustrator 30.0.0, SVG Export Plug-In . SVG Version: 2.1.1 Build 123)  -->
  <polygon points="43.38 0 .08 103.43 0 0 43.38 0"/>
  <polygon points="117.21 0 117.14 103.43 73.99 0 117.21 0"/>
  <path d="M393.79,53.94c.09,1.21.07,2.93,0,4.15,0,.02-.14.18-.16.37-.12,1.49.38,2.82-1.47,3.15-2.59.45-5.38-.11-7.97.33h-18.39c.11,3.13,1.35,6.11,3.77,8.13,4.43,3.69,12,3.35,17.26,1.89.76-.21,2.66-1.08,3.2-1.12.18-.01.52.08.52.23v7.38s-.2.62-.24.68c-.5.83-5.37,2.06-6.5,2.27-12.45,2.27-24.81-1.43-27.95-14.86-3.7-15.84,5.97-32.08,23.65-29.31,8.34,1.31,13.68,8.54,14.27,16.71h.01ZM383.79,54.25c.06-11.04-14.55-12.15-17.58-1.81-.16.54-.77,2.06.11,1.97l17.47-.16Z"/>
  <path d="M318.8,18.6l.39,19.52c1.75-.43,3.51-.89,5.31-1.07,14.58-1.49,24.71,8.97,23.3,23.43-1.48,15.18-14.3,22.16-28.54,21.45-2.42-.12-8.03-.87-10.16-1.84-.35-.16-.55-.35-.65-.74l.05-60.44c.03-.07.28-.31.31-.31h10,0ZM319.18,72.69c5.79,1.09,12.09-.18,15.54-5.3,2.75-4.08,3.12-10.8,1.1-15.24-2.92-6.44-10.56-7.28-16.64-5.28v25.82Z"/>
  <path d="M247.19,18.6l.38,59.63c-.28.57-5.58,2.18-6.5,2.41-10.7,2.74-24.26,1.89-30.21-8.77-3.41-6.11-3.75-14.79-1.03-21.21,4.46-10.53,16.03-14.87,26.9-13.47v-18.21s.2-.23.15-.38h10.31ZM236.72,72.21v-25.71c-.14-.39-2.23-.68-2.68-.71-10.73-.82-17,7.41-14.77,17.68,1.83,8.43,9.8,10.75,17.45,8.74Z"/>
  <path d="M183.94,23.55l20.43,57.28c-.19.32-.45.29-.77.32-2.3.22-6.92.19-9.24,0-.38-.03-.76-.06-1.07-.32l-5.17-14.89-21.12-.03-5.09,14.92c-.28.26-.57.28-.92.31-2.79.25-6.02-.14-8.85-.08-.43-.21-.35-.89-.2-1.28l18.46-52.55c.23-.71.09-3.52.66-3.8.18-.09.34-.07.53-.08,2.92-.29,8.58-.21,11.55,0,.28.02.57.03.8.2ZM185.2,56.4l-7.77-24.28-7.61,24.28h15.38Z"/>
  <polygon points="86.14 103.58 68.22 103.58 59.99 82.83 39.69 82.83 58.76 38.27 86.14 103.58"/>
  <path d="M277.62,36.93c15.28-.33,23.06,12.27,21.24,26.44-1.27,9.89-8.61,17.88-18.82,18.55-30.55,2-30.53-44.38-2.42-44.99h0ZM276.38,45.84c-11.87,1.34-12,26.03.58,27.16,10.32.93,12.73-10.86,10.77-18.75-1.38-5.52-5.44-9.07-11.34-8.41h0Z"/>
</svg>