<?xml version="1.0" encoding="UTF-8"?>
<svg id="Layer_1" xmlns="http://www.w3.org/2000/svg" version="1.1" viewBox="0 0 518.46 147.6">
  <!-- Generator: Adobe Illustrator 30.0.0, SVG Export Plug-In . SVG Version: 2.1.1 Build 123)  -->
  <path d="M370.48,0h147.98v147.59h-147.98s0-147.59,0-147.59ZM475.8,36.63c-27.48-12.27-63.17-3.94-67.98,29.42-5.32,36.84,22.66,56.41,57.18,48.42,4.08-.95,8.44-2.42,11.88-4.85v-15.35c-15.47,9.65-43.91,10.95-49.42-10.77-7.39-29.11,15.78-44.28,42-33.81,2.21.88,4.13,2.27,6.34,3.1v-16.16Z"/>
  <path d="M333.22,0v147.59h-147.98V0h147.98ZM263.28,32.32c-11.67-.99-24.65.74-36.45,0v82.95h39.15c2.84,0,10.74-2.47,13.41-3.86,17.28-9.06,16.25-34.75-2.87-40.31l6.21-4.84c11.45-17.35-.34-32.33-19.45-33.94Z"/>
  <path d="M147.98,0v147.59H0V0h147.98ZM78.04,32.32c-11.71-.95-24.62.71-36.45,0v82.95h39.69c2.45,0,9.73-2.34,12.14-3.51,18.04-8.71,17.53-34.9-2.15-40.67l7.02-5.65c10.39-17.57-1.87-31.64-20.25-33.13Z"/>
  <path d="M243.57,102.35v-22.62h17.01c1.57,0,5.83,1.07,7.44,1.74,8.04,3.34,8.4,15.37.39,19-.95.43-5.47,1.89-6.21,1.89h-18.63Z"/>
  <path d="M243.57,66.79v-20.47h17.55c.38,0,4.21,1.36,4.78,1.7,6,3.45,5.33,13.2-.36,16.72-.8.49-4.29,2.05-4.96,2.05h-17.01Z"/>
  <path d="M58.33,102.35v-21.82l.81-.81h16.2c1.77,0,6.5,1.22,8.2,2.06,7.84,3.9,7.28,15.76-1.07,19.06-.78.31-4.99,1.51-5.51,1.51h-18.63Z"/>
  <path d="M58.87,66.79v-20.47h17.01c.38,0,4.21,1.36,4.78,1.7,5.35,3.07,5.57,11.62,1.17,15.56-1.14,1.02-5.15,3.22-6.5,3.22h-16.47Z"/>
</svg>