<?xml version="1.0" encoding="UTF-8"?>
<svg id="Layer_1" xmlns="http://www.w3.org/2000/svg" version="1.1" viewBox="0 0 593.84 100.63">
  <!-- Generator: Adobe Illustrator 30.0.0, SVG Export Plug-In . SVG Version: 2.1.1 Build 123)  -->
  <path d="M130.8,2.01v19.41h26.24V2.01h14.06v19.41h11.25v11.23h-11.25v34.5c0,.21.59,1.31.81,1.53,2.02,1.92,7.91.55,10.43,0v11.46c-2.07.1-4.15.57-6.21.7-10.35.64-18.39-.72-19.11-12.74v-35.45h-26.23v34.27c0,.36.71,1.47,1.05,1.76,2.38,2,7.85.52,10.66,0v11.11c-.4.41-1.2.47-1.79.55-5.95.89-16.27,1.63-20.71-3.13-1.21-1.3-3.05-5.06-3.05-6.78V2.01h13.85Z"/>
  <path d="M47.73,29.85c-.43.05-2.85.75-2.92,1.07,1.33,2.39,2.38,4.75,2.78,7.5,1.79,12.5-6.36,20.65-18.37,21.84-3.54.35-7.79-.23-11.18.54-4.68,1.05-4.2,5.08.28,6.37,10.43,2.99,33.49-1.94,34.91,14.74,1.77,20.75-32.13,22.34-45.38,16.29-5.98-2.73-9.37-8.21-7.19-14.79l12.27.24c-.69,4.93,2.13,7.01,6.55,7.85,5.26,1,16.42,1.26,20.05-3.4,4.05-5.19-3.38-8.18-7.38-9.02-7.66-1.62-26.68-.65-29.78-9.81-2-5.91,3.49-11.01,8.44-13.11-6.61-5.25-10-11.96-7.9-20.52,3.91-15.92,25.32-19.85,37.19-10.24,1.11-2.08,3.8-3.67,6.05-4.38.6-.19,2.74-.77,3.21-.77h4.34v9.24l-.35.35c-1.79.15-3.88-.21-5.62,0h0ZM35.15,40.62c0-5.41-4.39-9.79-9.8-9.79s-9.8,4.38-9.8,9.79,4.39,9.79,9.8,9.79,9.8-4.38,9.8-9.79Z"/>
  <path d="M71.51,53c0,7.11,2.5,15.94,10.89,16.62,4.44.36,8.17-.85,11.5-3.74,1.07-.93,1.92-2.21,3-3.02,1.12.81,10.08,5.71,9.97,6.36-.15.88-3.78,4.68-4.65,5.43-6.98,6-19.42,7.93-28.07,5.09-23.78-7.8-22.91-56.11,5.25-59.22,16.91-1.87,26.95,10.1,27.75,26.04.07,1.37.21,4.66,0,5.86-.05.26-.12.44-.35.58h-35.29ZM94.24,43.41c-.26-5.65-2.63-11.2-8.66-12.53-8.54-1.88-14.17,4.36-14.07,12.53,0,0,22.73,0,22.73,0Z"/>
  <path d="M203.44,21.43l9.72,36.02,10.31-36.02h13.94l-18.5,58.6c-3.37,8.33-6.92,18.72-16.87,20.82-4.25.89-8.39.56-12.66.11v-11.46c4.1.48,9.44,1.28,12.89-1.52,2.73-2.21,5.31-8.53,4.06-12.01l-16.95-54.54h14.06Z"/>
  <path d="M464.24,19.09v6.08c-3.13.24-6.75.39-9.11,2.72,2.02,3.06,3.65,6.04,3.95,9.8,1.38,17.44-12.68,25.44-28.54,22.18-3.01-.62-3.32-1.76-6.3.34s-3.9,5.94-.3,7.66c4.78,2.28,15,1.45,20.51,1.75,7.35.4,17.4,2.73,19.67,10.77,6.18,21.88-30.04,22.78-42.82,17.72s-11.32-20.23,1.47-23.81c.07-.31-.24-.26-.47-.34-1.13-.39-2.23-.53-3.37-1.09-7.92-3.86-2.96-15,4.3-16.11.08-.33-.05-.38-.23-.59-.95-1.08-2.6-2.15-3.64-3.38-7.53-8.92-4.43-23.59,5.59-29.28,7.78-4.42,19.48-4.21,26.99.75,3.44-3.11,7.59-5.03,12.3-5.15v-.02ZM434.2,25.94c-16.19,1.82-16.93,27.78,1.11,29.17,8.72.67,16.21-2.85,16.98-12.28,1.01-12.24-6.12-18.24-18.09-16.89ZM432.09,75.76c-16.54,1.39-18.09,16.6-1.21,18.85,6.69.89,24.46.87,26.73-7.41,3.3-11.99-18.47-12.03-25.52-11.44h0Z"/>
  <path d="M276.78,29.85c3.74-3.6,7.31-7.22,12.47-8.72,8.78-2.55,18.35-.05,21.04,9.42.61.16.46-.36.8-.71,4.63-4.68,9.44-9.01,16.42-9.58,10.34-.85,17.23,3.38,17.92,14.15v45.26h-6.79v-45.96c0-1.88-1.69-5.02-3.2-6.16-7.79-5.86-19.99,2.43-24.45,9.2v42.92h-6.8v-46.66c0-2.14-2.18-5.03-4-6.06-8.04-4.53-18.78,3.15-23.41,9.57v43.16h-6.8V21.43h6.8v8.42Z"/>
  <path d="M401.21,79.67h-6.56l-1.05-6.78c-3.56,2.93-7.59,5.6-12.07,6.9-11.91,3.45-25.6-.16-25.32-14.75.23-11.7,8.79-15.98,18.63-19.06,6.25-1.96,12.72-3.17,19.07-4.71.37-7.45-.17-13.71-8.63-15.3-9.55-1.8-16.9,2.25-21.92,10.17l-4.24-2.56c-.32-.62,2.6-4.56,3.19-5.25,4.09-4.82,9.66-7.7,16.03-8.09,11.39-.7,21.07,2.54,21.93,15.32s-.74,26.09.23,38.84c.13,1.75.55,3.51.7,5.27h0ZM393.48,46.92c-8.22,2.2-22.73,4.48-28.24,11.46-3.7,4.68-2.72,13.24,2.94,16.02,7.91,3.9,19.8-2.6,25.3-8.42v-19.06Z"/>
  <path d="M516.26,50.9h-40.77c-.24,9.74,3.35,21.5,13.96,24.08,3.51.85,8.44.8,11.81-.57,4.46-1.82,7.73-6.64,10.09-10.64l5.62,2.81c-4.02,7.8-10.24,13.4-19.33,14.26-15.81,1.49-25.92-6.38-28.4-21.94-2.93-18.4,3.83-40.43,26.26-38.61,15.54,1.26,21.3,17.02,20.77,30.61h-.01ZM509.47,45.52c-.94-11.15-6.29-20.78-18.87-19.89-9.26.65-15.15,11.46-15.1,19.89h33.98-.01Z"/>
  <path d="M524.26,68.94l4.98-3.05c1.94,2.51,4.01,5.15,6.73,6.87,6.84,4.33,20.45,4.26,23.83-4.48,5.65-14.62-17.56-15.5-25.88-19.67-12.93-6.48-9.79-23.85,3.68-27.53,10.05-2.75,21.71.33,27.16,9.59l-5.06,3.59c-1.62-1.34-2.74-3.21-4.42-4.64-6.88-5.87-21.79-6.14-22.6,5.03-.41,5.64,3.16,7.69,7.84,9.47,8.91,3.39,23.22,4.43,26.2,15.49,6.03,22.39-27.03,27.93-40.61,12.23-.39-.45-2.09-2.47-1.84-2.9h-.01Z"/>
  <rect x="248.43" y="21.43" width="6.8" height="58.24"/>
  <path d="M593.84,13.46c0,7.43-6.04,13.46-13.48,13.46s-13.48-6.02-13.48-13.46,6.04-13.46,13.48-13.46,13.48,6.02,13.48,13.46ZM580.16,1.87c-14.26.11-14.6,21.75-1.44,23.07,16.54,1.66,16.96-23.19,1.44-23.07Z"/>
  <rect x="248.43" y="2.48" width="6.8" height="9.82"/>
  <path d="M583.16,5.52c4.9.69,4.67,8.13-.12,8.77l4.22,7.13-2.46-.23-4.1-6.66-3.04-.12v7.02h-2.34V5.52c2.44.25,5.49-.33,7.85,0h0ZM577.66,12.54h4.57c.32,0,1.52-.71,1.76-1.05.7-.97.66-2.9-.35-3.64-.26-.19-1.87-.7-2.12-.7h-3.87v5.38h0Z"/>
</svg>