<?xml version="1.0" encoding="UTF-8"?>
<svg id="Layer_1" xmlns="http://www.w3.org/2000/svg" version="1.1" viewBox="0 0 274.6 373.7">
  <!-- Generator: Adobe Illustrator 30.0.0, SVG Export Plug-In . SVG Version: 2.1.1 Build 123)  -->
  <defs>
    <style>
      .st0 {
        fill: #f48130;
      }
    </style>
  </defs>
  <g id="F94uxu">
    <g>
      <path class="st0" d="M250.5,295.6c-3.8-8.1-8.4-15.8-13.3-23.2-8.5-12.8-37.2-54-48.8-60.2-19.8-10.7-42.6,2.9-56.5,17.5s-11.7,14.1-12,15c-1.6,4.5,2.9,2.5,5,1,10.6-7.6,17-19.3,31-24,26.8-9.1,37.6,6.4,52.5,24.6,8.8,10.7,19.7,24.6,26.5,36.5s10.3,19,10.5,24.6-4.5,19-9.9,15.4-4.4-22.9-6-27.5c-10.9-31.1-42-41.4-70.3-25.3-39.4,22.4-37.7,71.1-94.1,64.7s-19.5-3.1-24.6-7.4-18.9-21.3-11.4-23.4l28.9,3.9c46.3-.2,72.2-40.2,106.6-64.4,6-4.2,11.1-7.5,18.9-6.6.9-3.8-2.9-4.4-5.8-4.8-19.7-2.2-57.9,31.8-76.5,41.9-17.8,9.7-37,14.8-57.2,16.8-9,.9-20.1,3.3-26.9-4s-7.7-14.4-4.6-19.3,27.8-1.2,33.5-1.8c18.7-1.8,40.8-14,54.6-26.4,17.8-15.9,29.1-38.5,53.4-46.6s26.3-1.5,40.9,9.2c27.2,20.1,43.5,52.7,63.9,79.1,3.6,4.3-3.2,17.7-8.1,14.6Z"/>
      <path class="st0" d="M158.3,179.7c-.2,1.2.4,2.9-.2,3.8s-14.7,6.1-17.2,7.3c-8.5,4-18.2,8.8-26,14-22.2,15.1-32.4,30.2-60.5,39.5-11.2,3.7-32.1,7.8-43.7,7.3-6.6-.2-7.9-9.2-8.4-14.7-1.6-17.5,9.9-12.5,22.9-14.8,47.1-8.4,69.5-43.6,107.3-64.7,44.7-25,52.1,1.7,78.6,29.7s17.9,14.7,25,23c8.6,10,12.8,22.8,20.2,32.8s19.8,15.7,7.2,28.6c-3,.5-11.5-15.3-13.6-18.3-19.9-28.4-40.1-51.9-66.8-74.2-13.4-11.2-20.3-16.3-38-10s-22.4,11.2-28,19-2.2,5,2.8,4.8c5.4-1.9,34.8-17,38.2-13.3Z"/>
      <path class="st0" d="M133.3,132.7c10.4-.2,19.6-5.3,30-2.5s18,8,12.4,13.5c-30.2-16.1-63,13.4-86.4,30.6-9.4,6.9-16.3,14.3-27.1,19.9-17.7,9.3-37.3,11.3-55.8,18.3-3.8,1.1-5.6-.7-6.2-4.4s-.9-15.7,1.9-17.9,19.3-5,24.2-6.8c30.9-10.7,70.8-41,96.3-61.7,16.6-13.4,30.7-15.6,51.2-8.2s23.9,18.8,37.3,35.7c10.7,13.4,29.9,33.3,43.5,43.5s16.3,8.8,18,11c2.9,4,1.3,14.9,1,20-1.7,2.5-4.8-.5-6.4-1.6-15.4-10.8-43.2-34.9-54.5-49.5-16.8-21.8-27.9-55-62-50.8s-21.7,6.9-17.6,10.9Z"/>
      <path class="st0" d="M67.3,347.8c.9-1.4,14,2.1,17.5,2,48.1-1.3,53.4-81.6,108-76,10,1,20.7,8.7,25.9,17.1,9.4,15,6,31,4.8,47.7-1.4,2.1-3.3,4.1-5.3,5.7-3.7,2.9-24.1,15.3-27.9,16.1s-3.4.9-5.1,0c-2.8-4,1-8.5,3.2-11.9,8.9-13.6,23.7-22.5,21.7-41.1s-27.7-19.1-41.4-7.6c-24.1,20.1-16.6,60.4-56,63-10.3.7-22.4-2.4-32-6s-15.8-5.5-13.5-9Z"/>
      <path class="st0" d="M269.3,160.7c-2.4,1.7-12.1-8-14.6-9.8-10.4-7.2-22.4-11-33.2-17.8-17.9-11.2-28.3-22.9-50.1-28.9-45-12.3-68.2,5.2-106.3,21.7-17.1,7.4-33.4,11-51.3,15.8l-2.9-1c-2.4-6.3,1.6-17,8.2-19.8s23.3-5.5,33.8-9.2c18.9-6.7,36.7-16.8,56.5-21.5,58.3-13.8,88.9,12.1,134.7,40.3,12.5,7.7,28.8,11.5,25.3,30.2Z"/>
      <path class="st0" d="M134.1,65c41.8-2.6,62,16,96.8,32.6s24,7.7,27.4,14.6,7.5,19.3-2.8,14.8c-22.9-14.3-48.7-31-73.6-41.4-33-13.8-60.7-7.6-93.4,1.9-22.3,6.5-44.4,14.3-66.6,21.2-5-1.5,4.1-18.7,7.8-20,36-3.9,68-21.3,104.4-23.6Z"/>
      <path class="st0" d="M249.3,93.7c-1,.7-3.4-.3-4.6-.7-25-8.6-50.6-28.5-77.3-34.7-46.4-10.8-81.9,12-124.8,17.3s-5.5,1.1-7.2-1.3c-.4-1.8,8.6-15.3,10.9-16,5.1-1.7,15-1.8,21.1-2.9,25.3-4.7,55-15.1,80.5-13.5s60.7,22,90.2,31.8c2,1,3.4,2.6,4.7,4.3s9.4,13.8,6.5,15.8Z"/>
      <path class="st0" d="M232.3,61.7c-2.1,2.1-21.5-9.5-25.3-11.2-39.8-17.7-70.7-20.1-113.5-11.1s-32.7,10.3-36.2,7.9c-3.4-4.7,6.9-14.1,10.7-16.4,18.8-11.3,79.1-8.9,101.7-6.1s42.9,9.6,52.2,18.8c2.3,2.3,13.1,15.4,10.5,18Z"/>
      <path class="st0" d="M102.1,115.9c3.5-.9,5.7,1.6,3.3,4.4l-60.4,42.6c-6.3,3.5-35.4,15.5-41,13.7-5.1-2.1.4-20.1,2.9-21.7,4.2-2.8,17.2-2.2,23.4-3.6,23.1-5,49.3-26.5,71.7-35.4Z"/>
      <path class="st0" d="M189.1,301c19.3-3.4,5.2,22.9,1,31-6.1,11.7-23,35.5-35.7,39.3s-16.7,3.5-19,2c-4.3-2.7,7.5-6.6,9.4-7.7,21.4-13.3,25.8-61.4,44.4-64.6Z"/>
      <path class="st0" d="M85.4,18.7c-.6-3.1.4-4.1,2.6-5.8,27.3-20.1,85.2-15.9,109.7,7s4,6.4-1.6,5.7-16.4-7-23.3-8.7c-20.5-5.2-49.8-5.8-70.5-1.6s-15.3,5.8-16.9,3.5Z"/>
      <path class="st0" d="M211.9,135.7c2.4-.6,10.7,6.9,13.3,8.6,11.2,7.4,23.3,15.4,34.8,22.2s13.7,2.5,14.3,17.7c.3,6.7-4.3,4.6-8.4,2.3-10.2-5.7-32.2-22.8-41.2-30.8-2.7-2.5-14-14-14.4-16.7s0-2.9,1.4-3.3Z"/>
      <path class="st0" d="M257.1,224c.3.2,1.2,2.4,2.2,3.3,1.9,1.8,11.8,10.7,12.3,11.7,2,4.1,0,10.7-5.3,8.3s-13.1-17.2-13-23.5c1.2,0,2.7-.4,3.8.2Z"/>
    </g>
  </g>
</svg>