<?xml version="1.0" encoding="UTF-8"?>
<svg id="Layer_1" data-name="Layer 1" xmlns="http://www.w3.org/2000/svg" viewBox="0 0 306 305.13">
  <g id="qICohM">
    <g>
      <path d="M53.67,82c-.08,1.28.32,2.44.95,3.53,8.96,15.43,31.63,36.15,46.14,46.89,2.98,2.21,17.93,10.64,18.49,11.57.61,1.03-.63,3.05-.17,5.01,2.26,9.57,33.31,38,42.12,44.97,7.83,6.19,16.42,11.16,24.46,17.01l-5.53,4.06c-3.89.38-19.49-8.93-23.39-11.61-10.1-6.91-43.54-36.65-43.9-48.23-.08-2.61,2.56-3.71,1.37-5.23-20.45-8.6-41.17-24.59-55.51-41.5-5.56-6.55-18.19-21.6-5.04-26.47Z"/>
      <path d="M81.33,78.35c39.06,38.2,76.39,77.97,115.41,116.1,2.55,3.79-1.94,8.23-7.01,4.98-16.87-10.83-45.71-41.76-59.47-57.52-17.57-20.13-39.96-36.71-58.1-56.9-1.8-2-8.99-9.99-9.34-11.75-.64-3.23,3.38-8.39,6.38-6.32,2.51,1.73,9.41,8.76,12.12,11.41Z"/>
      <path d="M139.86,122.82c-.54-.34-5.16-8.64-6.78-10.72-15.95-20.37-34.99-39.73-55.38-55.6,6.29-8.61,10.39-4.25,17.31.67,14.62,10.39,33.7,32.31,43.69,47.31,1.65,2.47,6.09,11.66,7.44,12.63,1.44,1.04,3.55-.47,5.77.08,7.17,1.75,29.5,24.31,35.28,30.8,4.83,5.41,22.04,26.95,23.31,32.74.72,3.28-2.19,8.55-4.85,6.81-7.38-10.13-15.02-20.28-23.46-29.55-6.12-6.73-30.01-31.45-36.76-34.24-1.94-.8-4.73-.41-5.57-.93Z"/>
      <path d="M107.68,158.01c-9.65,12.89,10.11,32.54,19.53,40.96,12.02,10.76,29.17,22.67,45.47,24.03-1.44,11.97-20.93,3.61-27.87.37-14.76-6.88-45.67-31.47-46.18-48.91-.14-4.68,2.5-5.61,3.57-8.46,1.54-4.09-2.6-1.91-3.88-2.11-21.12-3.31-48.45-22.34-59.44-40.59-4.64-7.71-9.34-17.84-.21-24.3,1.8,13.2,13.39,25.84,23,34.51,12.29,11.1,29.36,22.4,46.01,24.5Z"/>
      <path d="M218.68,176c-.18-7.96-5.37-16.34-9.59-22.92-7.38-11.52-31.64-39.79-44.48-43.51-3.28-.95-7.06-1.48-9.43,1.4-3.23-6.78-5.85-13.79-9.69-20.29-8.22-13.9-26.65-35.12-40.49-43.51-1.47-.89-12.15-4.96-11.32-6.17,10.31-6.92,18.48-.73,26.91,5.57,17.34,12.96,35.07,36.87,38.56,58.44,1.41,2.33,4.87-1.96,8.04-2.09,15.27-.64,40.55,29.88,47.91,42.15,4.03,6.71,16.87,29.24,3.58,30.92Z"/>
      <path d="M232.69,166c1.08-24.35-20.51-54.84-41.34-66.17-5.01-2.73-9.72-5.23-15.67-3.84,3.19-4.89,5.31-4.83,5.99-11.5,2.15-21.14-14.31-48-31.68-59.29-8.52-5.54-11.12-5.01-20.57-6.44-.87-.13-3.01-.44-2.73-1.74,30.33-11.69,58.88,26.78,60.98,53.5.5,6.43.31,14.66-4.96,18.99,2.46,2.54,6.32,1.15,9.99,1.99,13.07,2.97,29.9,22.34,36.41,33.59,5.5,9.51,16.92,34.71,3.59,40.92Z"/>
      <path d="M88.4,184.69c.75-.51.79-2.69,2.27-2.7.39,19.51,19.04,37.32,34.99,46.52,11.47,6.61,23.59,10.66,37.02,9.49-3.62,8.63-17.7,6.32-25.2,4.69-22.47-4.88-52.83-28.3-50.81-53.7-30.46,14.71-78.73-13.12-75.02-48.53l3.02-7.46c-2.37,21.92,17.67,41.28,36.34,49.17,9.02,3.82,29.04,8.27,37.4,2.52Z"/>
      <path d="M198.67,79.99c32.28-2.06,58.03,37.7,53.74,67.24-.66,4.53-2.11,8.25-6.73,9.76,3.06-14.08.06-27.41-6.62-39.89-8.49-15.87-26.9-34.62-46.39-33.11,12.06-31.48-12.65-75.63-48-75.01-.24-1.44,1.74-1.35,2.79-1.69,22.24-7.08,45.25,16.56,51.24,36.16,3.94,12.91,3.39,23.63-.04,36.53Z"/>
      <path d="M80.67,198c-4.32,22.54,19.46,43.5,38.63,50.87,13.36,5.13,18.8,3.72,32.11,2.36,5.41-.55.1,3.74-2.19,4.82-27.68,13.08-81.16-19.17-71.55-53.04-13.71,4.09-24.35,5-38.21.71-20.6-6.37-40.72-28-34.28-50.73,2.33,17.46,11.09,30.88,26.19,39.82s32.2,11.22,49.3,5.2Z"/>
      <path d="M228.18,72c26.71,4.17,46.78,47.55,35.69,71.69-.65,1.41-3.47,6.18-4.69,6.29-2.49.22-.44-2.72-.3-3.27,3.15-13.07,3.99-18.86-.15-32.26-5.81-18.82-26.79-42.67-48.32-40.27-1.15.13-4.31,3.11-4.73.3-.12-.79,3.56-10.97,3.88-14.11,2.71-26.43-16.41-55.57-43.88-58.39,3.84-4.36,16.46.1,21.23,2.28,18.51,8.46,29.4,32.38,27.64,52.1-.5,5.59-3.21,10.53-3.87,15.15-.45,3.14,2.03.48,2.5.48,4.4,0,10.99-.62,15,0Z"/>
      <path d="M3.66,198c9.42,24.95,46.51,33.46,68,19-1.01,35.49,45.13,60.8,75.52,45.01,2.3,3.37-5.8,6.49-8.53,7.47-24.17,8.66-60.03-6.09-67.48-31.48-.83-2.83-1.37-15.98-3-15.98-18.48,11.29-44.84,6.2-59.01-10.01-2.05-2.34-7.11-9.74-7.48-12.54-.26-1.96.36-1.56,1.98-1.47Z"/>
      <path d="M25.67,117c-1.06,14.56,11.99,29.2,22.54,37.97,10.56,8.78,26.36,16.5,40.12,17.93,3.25.34,6.19-1.75,8.33.6-2.77,3.78-5.97,5.05-10.62,5.38-23.01,1.65-55.5-20.02-63.1-41.64-2.53-7.2-4.36-15,2.73-20.24Z"/>
      <path d="M167.69,100c.71-23.73-23.79-58.38-45.01-67.5-1.52-.65-12.89-3.19-12-4.49,7.38-4.1,13.16-3.36,20.67-.19,17.19,7.25,38.57,35.48,41.06,53.94.82,6.09,2.21,16.16-4.73,18.24Z"/>
      <path d="M237.68,36c1.32.45,1.77,5.36,1.87,6.62.68,8.54-1.3,15.39-3.87,23.37,32.21.4,51.45,37.87,42.04,66.54-.73,2.23-4.78,11.12-6.33,11.72-5.15,1.98.34-5.81,1.07-7.98,10.18-30.47-12.18-70.89-46.77-68.28,9.05-18.99,7.42-39.89-6.49-56.01l-6.51-5.98c4.99.77,10.71,6.99,13.43,11.05,9.49,14.15,10.12,33,3.56,48.41.8,1.76,2.97,1.31,3.77.26,2.07-2.71,1.54-9.41,4.23-12.24v-17.5Z"/>
      <path d="M66.67,234c-.15,36.17,47.62,56.8,76.51,38,1.61,4.17-8.74,7.95-11.97,9.03-24.95,8.36-56.86-4.03-64.48-30.59-.73-2.53-1.42-12.64-1.98-12.97-2.76-1.62-4.63,1.17-7.52,1.58-3.19.45-7.22-.41-10.55-.06l19.99-4.99Z"/>
      <path d="M73.68,210.01c-1.6,4.94-12.67,7.49-17.51,7.98-11.06,1.11-21.58-.47-31.38-5.6-14.77-7.73-27.98-25-24.1-42.39l1.44,8.04c8.79,29.99,43.56,42.26,71.55,31.96Z"/>
      <path d="M278.68,141.99c1.2-5.31,4.9-9.69,6.47-15.02,5.91-20.03-.78-41.87-17.14-54.8l-13.32-7.16c11.09-.17,21.37,8.26,27.4,17.08,10.19,14.89,11.81,36.1,3.45,52.27-.51.98-5.14,9.48-6.85,7.64Z"/>
      <path d="M142.67,280c1.96,2.18-4.69,5.6-6.07,6.42-19.79,11.6-47.39,8.31-62.43-9.41-4.12-4.85-8.49-12.6-8.48-19.01l5.15,10.34c13.84,20.55,41.71,26.23,63.82,16.14,1.47-.67,7.34-5.22,8.02-4.47Z"/>
      <path d="M218.66,71l-2-2.45c10.28-20.4,4.42-46.69-13.07-60.96L190.68,0c10-.31,21.2,8.97,26.41,17.08,10.27,15.97,11.38,37.48,1.57,53.91Z"/>
      <path d="M285.68,141.99c2.48-5.77,6.72-10.73,8.72-16.77,6.54-19.81-.16-39.17-14.72-53.21,1.99-1.82,12.62,11.56,13.82,13.67,7.17,12.72,8.07,27.95,2.94,41.58-.55,1.47-8.19,17.39-10.76,14.73Z"/>
      <path d="M143.67,286c1.88,1.8-9.14,8.57-10.32,9.17-18.63,9.52-44.8,6.28-57.67-11.17l12.78,8.71c12.61,6.13,25.47,6.91,38.75,2.32l16.46-9.03Z"/>
      <path d="M66.67,228l-.67,3.01c-15.72,6.16-37.44,6.51-49.32-7,.65-.56,9.9,5,11.82,5.67,12.65,4.41,25.83,2.61,38.17-1.67Z"/>
      <path d="M302.68,99l3.03,12.55c-.86,4.57-1.37,9.86-2.73,14.25-.94,3.05-9.09,21.47-13.3,18.19,3.22-3.75,6.1-7.7,8.34-12.14.96-1.91,4.65-10.01,4.65-11.35v-21.5Z"/>
      <path d="M146.67,290c2.41,2.38-12.46,10.66-14.13,11.36-7.38,3.1-14.87,4.2-22.86,3.62l17.7-3.79,19.29-11.2Z"/>
      <path d="M163.67,290c2.05,1.89-12.29,11.88-14.99,10.99,1.46-2.23,13.1-12.73,14.99-10.99Z"/>
      <path d="M294.66,150l-1.5-1.98,8.14-10.89,4.37-9.12c.45,8.82-7.39,14.77-11.01,22Z"/>
      <path d="M134.68,303.99c4.1-3.11,8.57-5.62,12.72-8.7,1.89-1.4,3.61-5.84,5.26-2.79-.03,1.56-14.47,12.51-17.98,11.49Z"/>
    </g>
  </g>
</svg>