<?xml version="1.0" encoding="UTF-8"?>
<svg id="Layer_1" data-name="Layer 1" xmlns="http://www.w3.org/2000/svg" viewBox="0 0 263.2 262.99">
  <g id="T4MIVE" fill="#FA7875">
    <g>
      <path d="M219.22,37l2.98-1.01v4.99s6-.99,6-.99l-1.98,3.49c.04,1.18,6.26,2.75,6.85,3.7.2.33-.78,4.87,3.13,6.3-6,1.03-8.52-7.27-14.48-7.52-2.48-.03,2.52,19.2,2.98,21.02,5.8,23.41,15.3,46.48,21.02,69.98,4.59,18.86,9.51,40.83.48,59-1.71.26-1.07-2.38-.98-3.47,3.64-43.26-15.44-81.02-23.54-122.48-1.69-8.63-3.94-17.9-1.45-26.52-2.36-1.85-4.66,4.19-4.95,6.05-2.08,13.42,1.74,32.07,4.4,45.47,5.93,29.81,27.98,94.8,11.97,120.9-.6.98-6.27,8.27-7.43,7.06,10.09-20.43,5.32-43.68,1.68-65.18-4.37-25.79-22.64-89-13.43-111.06.89-2.13,2.73-3.71,3.74-5.75-6.22-.29-10.09,5.15-12.02,10.47-10.84,29.79,9.4,95.64,12.9,129.15,2.27,21.73,4.62,53.92-19.87,63.37,2.14-3.22,5.11-6.19,6.73-9.76,13.59-29.89-5.63-94.88-8.72-128.75-1.32-14.48-4.05-54.91,9.03-63.95,5.11-3.53,15.54-1.5,7.5-9.59C177.59-2.4,122.5-8.36,94.18,36.46c-24.87,39.37-23.84,100.03-18.85,144.9,1.38,12.38,10.93,59.3,7.14,67.39-2.34,4.99-12.89.83-11.24-1.74.48,0,1.38,0,1.62-.33,4.04-5.54-3.3-34.95-4.48-43.36-7.19-51.17-14.23-124.49,16.43-169.25C111.38-4.72,160.93-6.23,198.9,16.8c6.87,4.17,17.95,12.53,20.32,20.2Z"/>
      <path d="M186.21,16.98c-28.74-9.96-53.37-.86-68.17,25.34-28.25,50-14,110.71-9.84,164.18.88,11.3,2.83,34.44-.48,44.51-2.49,7.57-10.26,9.05-16.5,5.48,6.04-3.51,7.13-9.3,7.05-16.01-.25-20.83-6.47-45.57-8.06-67-4.01-53.9-1.72-184.73,85.98-160.98,3.04.82,8.15,1.96,10.01,4.48Z"/>
      <path d="M192.2,23c.25,1.71-2.38,1.07-3.48.98-12.84-1.04-20.58-3.06-31.85,5.18-40.07,29.31-24.67,131.4-22.68,175.34.64,14.15,2.27,34.36-.07,47.91-.98,5.67-4.08,10.5-10.41,10.59-1.36.02-10.68-1.5-9.51-2.99,12.62-3.23,11.53-22.03,10.99-32.5-2.55-49.5-11.29-92.12-3.86-142.87,5.71-39.02,23.53-79.23,70.86-61.62Z"/>
      <path d="M186.71,30.99c-27.13,4.5-29.66,59.84-29.54,80.54.18,32.77,7.72,65.33,9.03,97.97.64,15.91,2.12,47.4-17.93,52.05-1.55.36-7.98,1.97-7.06-1.54,4.67-.49,8.11-5.82,9.74-9.78,9.36-22.82-2.56-79-3.78-105.7-1.29-28.19-2.98-94.61,22.92-112.17,8.44-5.72,16.64-5.76,26.39-4.14l6.74,2.76c-5.07.58-11.67-.8-16.5,0Z"/>
      <path d="M210.71,34.99c.41.06,2.86.98,2.49,1.99-10.32-.77-17.35.2-23.19,9.31-22.3,34.76,6.89,127.89,4.19,171.19-1.04,16.64-5.96,35.57-24.48,39.52-1.83-1.3.47-2.12,1.18-2.82,14.54-14.24,12.66-39.52,11.3-58.68-2.8-39.27-20.5-112.66-1.55-147.57,1.99-3.66,9.96-12.94,14.06-12.94,4.8,0,11.55-.62,16,0Z"/>
      <path d="M122.21,0l-24.67,9.82c-51.53,32.3-53.86,106.28-47.2,160.54,2.55,20.79,10.29,44.4,11.86,64.14.2,2.48-.06,5.01.01,7.49-8.29.37-6.1-5.21-7.25-10.25-9.61-42.36-19.85-83.16-15.74-127.24C43.68,56.7,67.99,2.85,122.21,0Z"/>
      <path d="M76.2,10.99l-21.51,19.98c-29.18,35.18-32.21,95.21-23.21,138.24,3.77,18.03,15.07,42.97,15.72,60.3.06,1.5.7,2.88-1.47,2.47-4.41-1.81-13.83-33.48-15.44-39.57C14.1,130.99,9.8,43.73,76.2,10.99Z"/>
      <path d="M43.21,32c-3.92,5.78-9.01,10.74-12.81,16.68-27.67,43.27-20.79,98.97-5.9,145.52l10.21,26.79C3.28,169-7.96,84.11,37.18,36.46c.87-.92,4.94-5.5,6.03-4.46Z"/>
      <path d="M257.22,164.99c-.19-20.88-7.89-41.38-14.55-60.96-4.81-14.11-12.47-29.82-16.16-43.84-.81-3.06-1.69-5.96-1.28-9.2l20.76,49.73c5.91,18.75,16.47,40.86,13.24,60.77-.24,1.49-.05,3.09-2,3.49Z"/>
      <path d="M19.2,198.99c-2.83-2.25-4.5-7.09-5.99-10.5C-1.25,155.41-4.72,116.35,7.22,82c1.86-.23.74,2.01.54,3.04-.86,4.59-2.52,9.07-3.28,13.73-5.8,35.41,1.4,67.53,14.71,100.22Z"/>
      <path d="M263.2,134.99l-28.98-71,9.5,15.98c8.4,17.34,18.54,35.41,19.48,55.01Z"/>
      <path d="M260.2,105.99l-16.98-34c7.44,9.97,14.38,21.75,16.98,34Z"/>
      <path d="M252.2,79.99c-1.92-.91-9.59-13.37-8.99-13.99,2-.42,2.31.99,3.24,2.25,2.17,2.97,4.57,8.17,5.75,11.74Z"/>
    </g>
  </g>
</svg>
